<svg xmlns="http://www.w3.org/2000/svg" xmlns:xlink="http://www.w3.org/1999/xlink" width="172.2" height="174.6" viewBox="0 0 574 582">
  <defs>
    <style>
      .cls-1 {
        fill: #e2bf46;
        fill-rule: evenodd;
        filter: url(#filter);
      }
    </style>
    <filter id="filter" x="16" y="18" width="547" height="553.594" filterUnits="userSpaceOnUse">
      <feFlood result="flood"/>
      <feComposite result="composite" operator="in" in2="SourceGraphic"/>
      <feBlend result="blend" in2="SourceGraphic"/>
    </filter>
  </defs>
  <path id="Forma_1" data-name="Forma 1" class="cls-1" d="M282,18c39.422-.5,84.84,38.728,95,69,4.49,13.378-.577,43.216,3,53,3.489,9.543,14.47,12.861,18,33,4.848,27.66-11.947,35.534-20,49-22.151,37.04-28.372,62.525-80,71-43,7.058-73.88-24.5-88-48l-10-24c-9.956-14.262-24.643-25.926-18-55,2.868-12.552,14.223-18.175,17-27,3.712-11.8-2.1-32.6,1-45C210.762,50.965,246.96,36.56,282,18Zm0,130-25,4c-13.89,3.858-24.3,12.836-36,19-8.07-5.089-11.385-10.13-18-16l-3,2c-4.1,12.348-8.579,33.834,0,46l12,7c5.67,8.579,5.027,19.809,10,28,13.712,22.584,44.76,50.373,84,40,25.276-6.682,46.289-27.629,56-50q2.5-9,5-18l12-7c8.181-11.8,6.532-39.582-3-48l-3,2c-2.879,8.01-8.235,9.919-15,14C334.962,159.555,318.873,148.047,282,148Zm91,262-168-1c0.56-31.393-6.575-57.066-13-82-9.07,1.407-25.342,5.579-30,12,7.917,23.7,9.064,52.537,13,81l-1,1c-21.754-6.737-31.2-19.589-48-30l-18-9c3.6-44.082,77.231-79.842,125-75,23.069,42.363,89.566,27.022,115-1,41.064,10.067,135.29,26.409,122,80-26.007-.28-53.074,17.651-63,34l-3-1c1.629-29.827,10.5-56.151,12-83h-2l-27-9C381.019,352.709,375.253,378.97,373,410ZM84,402c42.758-.46,49.6,24.206,77,36,21.615,9.3,52.006,7.59,78,12,35.53,6.028,128.623,3.137,158-5,17.4-4.82,28.238-24.012,44-32,28.291-14.337,71.684-2.039,94,11q0.5,3.5,1,7c-15.879,10.325-43.329,13.6-63,19l-3,5c1.366,19.338,9.3,52.97,19,67l3,1,64-16c3.2,1.622,4.189,1.849,6,5q0.5,2.5,1,5c-14.067,22.944-40.375,63.063-85,53-27.925-6.3-39.33-29.183-63-37-24.271-8.015-50.633-2.3-80-7-27.549-4.411-72.414-6.88-103-2l-53,4-33,27c-30.256,16.358-77.783,8.721-103-8,0.368-6.386,1.482-6.435,4-10,14.812-1.729,56.223-8.8,61-21,2.3-9.1-13.964-61.1-20-67-20.71,1.647-54.632,21.938-72,12v-6C33.045,421.6,48.034,416.691,84,402Z"/>
</svg>
