<svg xmlns="http://www.w3.org/2000/svg" width="283.4" height="283.4" viewBox="0 0 1417 1417">
  <metadata><?xpacket begin="﻿" id="W5M0MpCehiHzreSzNTczkc9d"?>
<x:xmpmeta xmlns:x="adobe:ns:meta/" x:xmptk="Adobe XMP Core 5.6-c140 79.160451, 2017/05/06-01:08:21        ">
   <rdf:RDF xmlns:rdf="http://www.w3.org/1999/02/22-rdf-syntax-ns#">
      <rdf:Description rdf:about=""/>
   </rdf:RDF>
</x:xmpmeta>
                                                                                                    
                                                                                                    
                                                                                                    
                                                                                                    
                                                                                                    
                                                                                                    
                                                                                                    
                                                                                                    
                                                                                                    
                                                                                                    
                                                                                                    
                                                                                                    
                                                                                                    
                                                                                                    
                                                                                                    
                                                                                                    
                                                                                                    
                                                                                                    
                                                                                                    
                                                                                                    
                           
<?xpacket end="w"?></metadata>
<defs>
    <style>
      .cls-1 {
        fill-rule: evenodd;
      }
    </style>
  </defs>
  <path id="Forma_1" data-name="Forma 1" class="cls-1" d="M397,0c14.736,0.083,24.826,7.126,36,11l82,27,262,86c23.918,8.021,125.919,34.347,136,47,16.341,20.511-1.76,102.25,6,134h1q88.491-36,177-72c15.3-4.853,59.78,14.5,73,19q111.495,37.5,223,75c10.86,8.484,8,32.831,8,52v728c0,15.4,3.01,38.07-2,50-7.02,16.72-39.18,16.75-58,22-55.04,15.35-111,28.17-168,43q-220.98,56.49-442,113-66.993,16.005-134,32-73.992,19.005-148,38c-8.327,2.38-45.636,16.07-55,12q-140.485-77.985-281-156c-19.455-11.43-88.153-39.13-95-57V274c4.678-14.236,81.316-62.174,98-74Zm59,129-8,4q-0.5,73.992-1,148c0,18.816-2.847,44.821,5,56l174,36,5-5c6.4-9.485,3-35.252,3-50,0-43.259,7.223-101.427-3-139ZM340,149L231,219c-5.536,9.148-2,33.893-2,47q0.5,64.494,1,129l5,4c20.65-.811,98.625-39.043,116-50,8.967-32.965,2-105.619,2-145,0-20.089,2.137-43.41-6-55h-7Zm355,50c-13.407,17.6-6,108.886-6,141,0,11.842-3.52,36.184,2,44,5.331,7.549,25.494,6.689,36,9,16.127,3.547,99.861,24.711,110,21l5-3c8.887-32.836,2-83.041,2-120q-0.5-23-1-46c-5.385-11.664-20.957-11.029-34-15C776.772,220.188,730.486,200.111,695,199ZM150,268L73,317l1,148c3.547,1.794,4.356,2.61,10,3,25.076-9.761,55.808-20,77-35q0.5-62.495,1-125C162,290.1,167.051,270.023,150,268Zm999,60c-3.56,2.557-6.68,3.161-8,8V472c2.55,7.9,83.59,26.256,97,24,1.67-1.667,3.33-3.333,5-5,0.25-28,5.25-122.394-4-138Q1194,340.5,1149,328Zm119,35c-10.74,15.187-5,79.849-5,106,0,12.416-2.45,28.733,5,34,10.1,6.048,73.38,18.593,83,13,2.6-8.382,5.69-116.56,2-126C1350.08,382.544,1282.57,363.2,1268,363ZM455,415c-11.589,8.987-8,32.774-8,53q0.5,75.993,1,152c14.176,9.676,109.816,14.335,133,15l48,2c8.393-4.976,5-31.954,5-45,0-30.618,6.013-130.245-4-148Zm494,6-5,7V658l5,6,112,7c1.67-1.333,3.33-2.667,5-4q-0.495-110.488-1-221C1049.66,436.449,972.637,421.814,949,421Zm-611,6L230,468c-9.27,33.513-2,96.155-2,135,0,14.841-3.409,38.109,6,44,9.379,5.541,99.158-13.949,115-18,10.624-21.632,4-116.323,4-150,0-17.03,2.3-40.086-4-51Zm357,28c-13.716,19.224-6,110.424-6,144,0,14.928-3.733,40.48,7,45l111,9c11.1,1.87,29.127,4.611,34-3,6.684-8.2,3-57.182,3-73,0-17.867,4.874-86.235-2-96-5.711-8.112-24.345-5.707-36-8C771.254,466.164,733.084,454.946,695,455ZM148,494c-21.566,14.431-54.461,15.05-75,30l1,148c10.486,5.062,82.645-6.414,87-15,4.64-17.226,2.452-153-3-162Zm1002,34c-2.33,1.333-4.67,2.667-7,4-8.09,28.918-2,74.063-2,107,0,10.233-2.84,30.536,2,37,6.88,9.178,39.45,4.947,53,7,13.99,2.12,35.5,6,46-1,3.37-17.851,3.77-127.313-2-138Zm120,20q-3.495,3.5-7,7,0.495,64.993,1,130c6.59,10.4,40.27,5.832,55,8,12.06,1.774,24.11,3.528,32-1,4.62-14.5,3.93-125.861-3-131C1334.05,553.02,1289.12,549.316,1270,548ZM455,701l-7,7V907l5,4,136-6c14.067-2.123,33.446,3.41,41-5,7.125-6.437,4-30.047,4-43V748c0-14.766,2.829-33.723-7-39Zm-117,3L233,714c-6.606,10.438-4,34.307-4,51q0.5,64.494,1,129c13.6,7.014,109.291,17.678,121,10,3.7-11.9,2-31.837,2-47V755c0-19.464,2.647-41.232-7-51h-8Zm357,7c-13.675,19.243-6,109.5-6,143,0,17.894-1.631,36.229,6,46,28.5,0.354,131.689-.353,147-10,5.063-18.574,4.745-160.3-2-172C808.817,708.562,735.707,710.941,695,711Zm-546,9c-22.648,8.385-56.749-2.062-75,10L73,839c0,12.321-2.672,32.869,2,39,5.463,6.515,69.211,12.335,82,10l4-5c5.013-18.741,3.615-147-2-161Zm799,1-5,7q0.5,114.988,1,230l6,6c18.128-.049,110.25-7.068,115-15q0.495-83.491,1-167c0-17.6,3.26-44.936-4-56C1028.73,718.087,985.332,720.988,948,721Zm200,7c-13.08,12.9-7,87.493-7,115,0,14.474-2.78,30.93,7,36,13.52,3.743,84.52-1.231,94-7,4.38-23.061,5.23-126.918-4-140Zm122,5c-9.48,8.7-11.59,125.724-3,140,14.32,2.4,71.37,1.921,84-5,5.56-20.138,5.83-118.8-3-132Zm69,178c-23.49,9.863-57.31-.923-75,11q-0.495,97.991-1,196c0,16.53-5.16,55.68,5,63,8.21,4.43,77.55-15.34,86-21,5.36-19.57,3.36-59.64,0-82q-0.495-58.5-1-117c-2.22-14.791,5.35-41.324-5-48Zm-118,10c-16.55,8.344-68.88-1.216-78,12-6.79,12.548-2,44.177-2,61v153c0,16.12-5.31,57.35,5,64,5.23,3.86,91.91-17.95,95-23,6.82-9.54,2-41.84,2-56V983c0-15.5,5-53.73-5-60C1234.69,920.425,1227.21,920.716,1221,921ZM78,933l-5,5q0.5,73.992,1,148c8.04,4.04,75.223,32.62,83,29,8.088-3.76,5-27.34,5-39,0-28.3,7.013-110.976-4-128Zm752,22L727,965c-11.549,1.819-30.56-1.773-36,6-5.857,8.367-2,59.1-2,74v201c0,18.37-4.179,73.76,6,80,11.973,4.79,51.415-10.64,63-14,15.311-4.44,78.419-14.13,84-23q1-97.995,2-196V963C841.976,957.736,836.852,955.826,830,955Zm-594,7-5,5c-5.536,9.148-2,33.89-2,47q0.5,64.5,1,129c27.157,13.4,84.395,38.22,115,43,2.6-1.4,3.334-1.61,5-4,6.3-8.87,3-33.87,3-48,0-34.88,8.139-131.96-6-152Zm386,11-50,4c-39.423,6.436-86.453,2.5-122,13-9.629,27.03-3,87.96-3,122q0.5,135.99,1,272c10.55,7.56,28.517,1.33,43-3q46-12.495,92-25c16.8-4.58,36.109-5.5,49-14,5.147-21.38,2-53.14,2-78V1098c0-38.01,6.234-89.53-3-122Z"/>
</svg>
