<svg id="Agrupar_1" data-name="Agrupar 1" xmlns="http://www.w3.org/2000/svg" xmlns:xlink="http://www.w3.org/1999/xlink" width="75.8" height="39.968" viewBox="0 0 1356 715">
  <metadata><?xpacket begin="﻿" id="W5M0MpCehiHzreSzNTczkc9d"?>
<x:xmpmeta xmlns:x="adobe:ns:meta/" x:xmptk="Adobe XMP Core 5.6-c140 79.160451, 2017/05/06-01:08:21        ">
   <rdf:RDF xmlns:rdf="http://www.w3.org/1999/02/22-rdf-syntax-ns#">
      <rdf:Description rdf:about=""/>
   </rdf:RDF>
</x:xmpmeta>
                                                                                                    
                                                                                                    
                                                                                                    
                                                                                                    
                                                                                                    
                                                                                                    
                                                                                                    
                                                                                                    
                                                                                                    
                                                                                                    
                                                                                                    
                                                                                                    
                                                                                                    
                                                                                                    
                                                                                                    
                                                                                                    
                                                                                                    
                                                                                                    
                                                                                                    
                                                                                                    
                           
<?xpacket end="w"?></metadata>
<defs>
    <style>
      .cls-1, .cls-3, .cls-4, .cls-5, .cls-6 {
        fill: #50493e;
      }

      .cls-1, .cls-2 {
        fill-rule: evenodd;
      }

      .cls-2 {
        fill: #e2bf46;
      }

      .cls-3 {
        filter: url(#filter);
      }

      .cls-4 {
        filter: url(#filter-2);
      }

      .cls-5 {
        font-size: 50px;
      }

      .cls-5, .cls-6 {
        font-family: Georgia;
      }

      .cls-6 {
        font-size: 41.667px;
      }
    </style>
    <filter id="filter" x="556.969" y="581.625" width="87.969" height="88" filterUnits="userSpaceOnUse">
      <feFlood result="flood" flood-color="#e2bf46"/>
      <feComposite result="composite" operator="in" in2="SourceGraphic"/>
      <feBlend result="blend" in2="SourceGraphic"/>
    </filter>
    <filter id="filter-2" x="199.812" y="581.625" width="88" height="88" filterUnits="userSpaceOnUse">
      <feFlood result="flood" flood-color="#e2bf46"/>
      <feComposite result="composite" operator="in" in2="SourceGraphic"/>
      <feBlend result="blend" in2="SourceGraphic"/>
    </filter>
  </defs>
  <path id="Forma_1" data-name="Forma 1" class="cls-1" d="M62.02,24h99.033c6.258,19.652,56.091,62.465,71.023,81L409.133,304v1c-23.956.216-81.374,6.555-98.032-1-6.66-20.944-28.457-38.444-41.013-55L181.059,135c-11.323-14.969-32.973-52.547-48.016-61H104.034q0.5,145.485,1,291H62.02V24ZM199.065,539V440l81.026-109,134.044-2V539H199.065Zm216.07-210,7,1ZM60.02,381l43.014,1L70.023,424v76c17.559,12.033,41.112,29.105,54.017,46l-1,2-66.021-1C44.491,542.3,8.643,503.6,0,492V441Zm368.12,62,200.065,1v95L428.14,538V443ZM238.078,559l268.087,2c38.322-.006,98.153-7.474,126.041,4,52.308,21.521,53.364,120.584-7,125q1,1.5,2,3H223.073c-41.959-11.781-67.215-68.5-36.012-110C199.527,566.419,216.8,567.667,238.078,559Z"/>
  <path id="Forma_2" data-name="Forma 2" class="cls-2" d="M414,329q0.5,104.99,1,210H199V445c6.577-28.419,35.181-52.466,51-74,7.728-10.52,20.16-38.047,33-42H414ZM629,442v97l-202-1V443Z"/>
  <circle id="Elipse_1" data-name="Elipse 1" class="cls-3" cx="600.954" cy="625.625" r="43.984"/>
  <circle id="Elipse_1_copiar" data-name="Elipse 1 copiar" class="cls-4" cx="243.812" cy="625.625" r="44"/>
  <text id="EPESADOS" class="cls-5" transform="translate(423.849 427.08) scale(3.439)">EPESADOS</text>
  <text id="Deixe_o_trabalho_pesado_com_a_gente_" data-name="Deixe o trabalho pesado com a gente " class="cls-6" x="644.938" y="512.628">Deixe o trabalho pesado com a gente </text>
</svg>
