<svg xmlns="http://www.w3.org/2000/svg" width="223.5" height="184.35" viewBox="0 0 1490 1229">
  <metadata><?xpacket begin="﻿" id="W5M0MpCehiHzreSzNTczkc9d"?>
<x:xmpmeta xmlns:x="adobe:ns:meta/" x:xmptk="Adobe XMP Core 5.6-c140 79.160451, 2017/05/06-01:08:21        ">
   <rdf:RDF xmlns:rdf="http://www.w3.org/1999/02/22-rdf-syntax-ns#">
      <rdf:Description rdf:about=""/>
   </rdf:RDF>
</x:xmpmeta>
                                                                                                    
                                                                                                    
                                                                                                    
                                                                                                    
                                                                                                    
                                                                                                    
                                                                                                    
                                                                                                    
                                                                                                    
                                                                                                    
                                                                                                    
                                                                                                    
                                                                                                    
                                                                                                    
                                                                                                    
                                                                                                    
                                                                                                    
                                                                                                    
                                                                                                    
                                                                                                    
                           
<?xpacket end="w"?></metadata>
<defs>
    <style>
      .cls-1 {
        fill-rule: evenodd;
      }
    </style>
  </defs>
  <path id="Forma_1" data-name="Forma 1" class="cls-1" d="M314,138c138.148,3.478,260.406,140.83,194,290-31.723,71.26-88.74,111.257-179,125-34.868,5.309-69.559-7.435-92-17C150.508,499.136,74,387.212,126,265c23.157-54.426,68.362-96,126-116C268.864,143.15,297.63,145.412,314,138ZM530,276c26.489,0.284,104.312,6.314,120-4,6.164-14.993,21.889-26.582,35-35,72.408-46.491,172.685-15.006,196,58-24.994-.2-105.6-5.428-122,2-0.236,23.875-5.961,82.482,2,100l117-1,2,1v4c-15.644,20.062-24.846,40.539-46,55-44.213,30.224-112.576,27.635-154-3-8.871-6.56-28.132-34.592-35-37l-113,1c-1.423-2.372-1.649-2.636-2-7C549.554,364.61,533.18,320,530,276ZM306,232l-33,8c-28.279,11.037-54.265,38.477-64,68-26.893,81.557,41.731,167.689,128,151C469.5,433.367,461.22,230.146,306,232Zm-2,9h26v2q-5.5,28-11,56l-2,1C309.308,293.545,300.488,249.779,304,241Zm-90,85q4-13.5,8-27h4l47,31-3,3Zm197-19c3.827,1.321,2.08,0,4,3l6,24-1,1c-14.588.343-50.365,7.287-59-1l2-3Zm-95,5c41.728,4.869,46.26,59.277,7,67-26.394,5.192-46.371-21.859-37-46C291.163,319.7,303.03,317.912,316,312Zm-27,70c-1.84,19.942-17.8,36.106-24,54h-4c-5.546-6.552-16.654-9.6-19-19C258.564,409.092,269.562,385.1,289,382Zm53,2c14.03,4.454,34.508,29.582,43,41l-2,3-20,13-4-3C355.791,420.968,338.578,401.029,342,384ZM1457,994v79H40V994l33-1,1-507h70c42.943,57.036,154.838,110.982,252,69,29.933-12.933,53.676-29.82,77-49l18-20,530-1q0.5-28,1-56l372,1q0.495,28,1,56l29,1q0.495,253.474,1,507h32ZM140,597c-6.8,12.459-2,44.24-2,61V810c0,12.064-2.886,59.4,2,65,9.142,3.653,145.786,2.287,153-1V670c0-12.9,3.118-66.1-2-72Zm225,0c-8.044,17.874-2,56.679-2,79q0.5,99.491,1,199l117,1c10.122,0,32.272,3.017,37-3q0.5-102.99,1-206c0-20.026,5.133-54.186-2-70H365Zm202,0q-0.5,31.5-1,63l40,1V896c0,23.985-5.963,80.231,2,98H807c23.613,0,64.959,6.54,84-2V747c0-14.489-3.541-79.6,2-86l38-1q-0.5-31.5-1-63H567Zm457,0-3,3q0.5,137.486,1,275l215,1c12.64,0,63.51,2.647,68-3q0.495-104.99,1-210c0-12.354,2.62-60.539-3-65Z"/>
</svg>
